<?xml version="1.0" encoding="UTF-8" standalone="no"?>
<!-- Created with Inkscape (http://www.inkscape.org/) -->

<svg
   xmlns:dc="http://purl.org/dc/elements/1.1/"
   xmlns:cc="http://creativecommons.org/ns#"
   xmlns:rdf="http://www.w3.org/1999/02/22-rdf-syntax-ns#"
   xmlns:svg="http://www.w3.org/2000/svg"
   xmlns="http://www.w3.org/2000/svg"
   xmlns:sodipodi="http://sodipodi.sourceforge.net/DTD/sodipodi-0.dtd"
   xmlns:inkscape="http://www.inkscape.org/namespaces/inkscape"
   width="80"
   height="25"
   viewBox="0 0 21.166666 6.6145833"
   version="1.1"
   id="svg5101"
   inkscape:version="0.92.3 (2405546, 2018-03-11)"
   sodipodi:docname="cross.svg">
  <defs
     id="defs5095" />
  <sodipodi:namedview
     id="base"
     pagecolor="#ffffff"
     bordercolor="#666666"
     borderopacity="1.0"
     inkscape:pageopacity="0.0"
     inkscape:pageshadow="2"
     inkscape:zoom="11.2"
     inkscape:cx="43.324715"
     inkscape:cy="7.5851764"
     inkscape:document-units="mm"
     inkscape:current-layer="layer1"
     showgrid="false"
     units="px"
     inkscape:window-width="1920"
     inkscape:window-height="1017"
     inkscape:window-x="-8"
     inkscape:window-y="-8"
     inkscape:window-maximized="1" />
  <metadata
     id="metadata5098">
    <rdf:RDF>
      <cc:Work
         rdf:about="">
        <dc:format>image/svg+xml</dc:format>
        <dc:type
           rdf:resource="http://purl.org/dc/dcmitype/StillImage" />
        <dc:title></dc:title>
      </cc:Work>
    </rdf:RDF>
  </metadata>
  <g
     inkscape:label="Layer 1"
     inkscape:groupmode="layer"
     id="layer1"
     transform="translate(0,-290.38542)">
    <path
       style="fill:#000000;stroke-width:0.0163323"
       d="m 1.1367954,296.62779 v -0.36747 h 0.122493 0.122492 v 0.36747 0.36748 h -0.122492 -0.122493 z m 1.094265,-0.36747 v -0.73496 h 0.122492 0.122492 v 0.73496 0.73495 h -0.122492 -0.122492 z m 1.094264,0.36747 v -0.36747 h 0.122493 0.122492 v 0.36747 0.36748 h -0.122492 -0.122493 z m 2.188529,0 v -0.36747 h 0.122492 0.122493 v 0.36747 0.36748 h -0.122493 -0.122492 z m 1.094264,-0.36747 v -0.73496 h 0.122493 0.122492 v 0.73496 0.73495 h -0.122492 -0.122493 z m 1.094265,0.36747 v -0.36747 h 0.122492 0.122492 v 0.36747 0.36748 h -0.122492 -0.122492 z m 2.1885291,0 v -0.36747 h 0.1224895 0.122492 v 0.36747 0.36748 H 10.013401 9.8909115 Z m 1.0942615,-0.36747 v -0.73496 h 0.122492 0.122492 v 0.73496 0.73495 h -0.122492 -0.122492 z m 1.094264,0.36747 v -0.36747 h 0.122492 0.122493 v 0.36747 0.36748 h -0.122493 -0.122492 z m 2.188529,0 v -0.36747 h 0.122492 0.122492 v 0.36747 0.36748 h -0.122492 -0.122492 z m 1.094264,-0.36747 v -0.73496 h 0.122493 0.122492 v 0.73496 0.73495 H 15.484723 15.36223 Z m 1.094265,0.36747 v -0.36747 h 0.122492 0.122492 v 0.36747 0.36748 h -0.122492 -0.122492 z m 2.188528,0 v -0.36747 h 0.122493 0.122492 v 0.36747 0.36748 h -0.122492 -0.122493 z m 1.094265,-0.36747 v -0.73496 h 0.122492 0.122493 v 0.73496 0.73495 H 19.86178 19.739288 Z m 1.094264,0.36747 v -0.36747 h 0.122492 0.122493 v 0.36747 0.36748 h -0.122493 -0.122492 z m -20.79102064,-1.4699 v -1.10243 h 0.122492 0.122493 v 1.10243 1.10243 h -0.122493 -0.122492 z m 4.37705804,0 v -1.10243 h 0.122492 0.122492 v 1.10243 1.10243 h -0.122492 -0.122492 z m 4.3770574,0 v -1.10243 h 0.122493 0.122492 v 1.10243 1.10243 h -0.122492 -0.122493 z m 4.3770552,0 v -1.10243 h 0.122492 0.122492 v 1.10243 1.10243 h -0.122492 -0.122492 z m 4.377057,0 v -1.10243 h 0.122493 0.122492 v 1.10243 1.10243 h -0.122492 -0.122493 z m -16.4139636,0 v -0.36748 h 0.122493 0.122492 v 0.36748 0.36747 h -0.122492 -0.122493 z m 2.188529,0 v -0.36748 h 0.122493 0.122492 v 0.36748 0.36747 h -0.122492 -0.122493 z m 2.188529,0 v -0.36748 h 0.122492 0.122493 v 0.36748 0.36747 h -0.122493 -0.122492 z m 2.188529,0 v -0.36748 h 0.122492 0.122492 v 0.36748 0.36747 h -0.122492 -0.122492 z m 2.1885291,0 v -0.36748 h 0.1224895 0.122492 v 0.36748 0.36747 H 10.013401 9.8909115 Z m 2.1885255,0 v -0.36748 h 0.122492 0.122493 v 0.36748 0.36747 h -0.122493 -0.122492 z m 2.188529,0 v -0.36748 h 0.122492 0.122492 v 0.36748 0.36747 h -0.122492 -0.122492 z m 2.188529,0 v -0.36748 h 0.122492 0.122492 v 0.36748 0.36747 h -0.122492 -0.122492 z m 2.188528,0 v -0.36748 h 0.122493 0.122492 v 0.36748 0.36747 h -0.122492 -0.122493 z m 2.188529,0 v -0.36748 h 0.122492 0.122493 v 0.36748 0.36747 H 20.956044 20.833552 Z M 2.2310604,293.68798 v -1.10243 h 0.122492 0.122492 v 1.10243 1.10243 h -0.122492 -0.122492 z m 4.377057,0 v -1.10243 h 0.122493 0.122492 v 1.10243 1.10243 h -0.122492 -0.122493 z m 4.3770556,0 v -1.10243 h 0.122492 0.122492 v 1.10243 1.10243 h -0.122492 -0.122492 z m 4.377057,0 v -1.10243 h 0.122493 0.122492 v 1.10243 1.10243 H 15.484723 15.36223 Z m 4.377058,0 v -1.10243 h 0.122492 0.122493 v 1.10243 1.10243 H 19.86178 19.739288 Z m -18.6024926,0 v -0.36748 h 0.122493 0.122492 v 0.36748 0.36748 h -0.122492 -0.122493 z m 2.188529,0 v -0.36748 h 0.122493 0.122492 v 0.36748 0.36748 h -0.122492 -0.122493 z m 2.188529,0 v -0.36748 h 0.122492 0.122493 v 0.36748 0.36748 h -0.122493 -0.122492 z m 2.188529,0 v -0.36748 h 0.122492 0.122492 v 0.36748 0.36748 h -0.122492 -0.122492 z m 2.1885291,0 v -0.36748 h 0.1224895 0.122492 v 0.36748 0.36748 H 10.013401 9.8909115 Z m 2.1885255,0 v -0.36748 h 0.122492 0.122493 v 0.36748 0.36748 h -0.122493 -0.122492 z m 2.188529,0 v -0.36748 h 0.122492 0.122492 v 0.36748 0.36748 h -0.122492 -0.122492 z m 2.188529,0 v -0.36748 h 0.122492 0.122492 v 0.36748 0.36748 h -0.122492 -0.122492 z m 2.188528,0 v -0.36748 h 0.122493 0.122492 v 0.36748 0.36748 h -0.122492 -0.122493 z m 2.188529,0 v -0.36748 h 0.122492 0.122493 v 0.36748 0.36748 H 20.956044 20.833552 Z M 0.04253136,292.21807 v -1.10243 h 0.122492 0.122493 v 1.10243 1.10243 h -0.122493 -0.122492 z m 4.37705804,0 v -1.10243 h 0.122492 0.122492 v 1.10243 1.10243 h -0.122492 -0.122492 z m 4.3770574,0 v -1.10243 h 0.122493 0.122492 v 1.10243 1.10243 h -0.122492 -0.122493 z m 4.3770552,0 v -1.10243 h 0.122492 0.122492 v 1.10243 1.10243 h -0.122492 -0.122492 z m 4.377057,0 v -1.10243 h 0.122493 0.122492 v 1.10243 1.10243 h -0.122492 -0.122493 z m -16.4139636,0 v -0.36748 h 0.122493 0.122492 v 0.36748 0.36748 h -0.122492 -0.122493 z m 2.188529,0 v -0.36748 h 0.122493 0.122492 v 0.36748 0.36748 h -0.122492 -0.122493 z m 2.188529,0 v -0.36748 h 0.122492 0.122493 v 0.36748 0.36748 h -0.122493 -0.122492 z m 2.188529,0 v -0.36748 h 0.122492 0.122492 v 0.36748 0.36748 h -0.122492 -0.122492 z m 2.1885291,0 v -0.36748 h 0.1224895 0.122492 v 0.36748 0.36748 H 10.013401 9.8909115 Z m 2.1885255,0 v -0.36748 h 0.122492 0.122493 v 0.36748 0.36748 h -0.122493 -0.122492 z m 2.188529,0 v -0.36748 h 0.122492 0.122492 v 0.36748 0.36748 h -0.122492 -0.122492 z m 2.188529,0 v -0.36748 h 0.122492 0.122492 v 0.36748 0.36748 h -0.122492 -0.122492 z m 2.188528,0 v -0.36748 h 0.122493 0.122492 v 0.36748 0.36748 h -0.122492 -0.122493 z m 2.188529,0 v -0.36748 h 0.122492 0.122493 v 0.36748 0.36748 H 20.956044 20.833552 Z M 2.2310604,291.11564 v -0.73495 h 0.122492 0.122492 v 0.73495 0.73495 h -0.122492 -0.122492 z m 4.377057,0 v -0.73495 h 0.122493 0.122492 v 0.73495 0.73495 h -0.122492 -0.122493 z m 4.3770556,0 v -0.73495 h 0.122492 0.122492 v 0.73495 0.73495 h -0.122492 -0.122492 z m 4.377057,0 v -0.73495 h 0.122493 0.122492 v 0.73495 0.73495 H 15.484723 15.36223 Z m 4.377058,0 v -0.73495 h 0.122492 0.122493 v 0.73495 0.73495 H 19.86178 19.739288 Z M 1.1367954,290.74816 v -0.36747 h 0.122493 0.122492 v 0.36747 0.36748 h -0.122492 -0.122493 z m 2.188529,0 v -0.36747 h 0.122493 0.122492 v 0.36747 0.36748 h -0.122492 -0.122493 z m 2.188529,0 v -0.36747 h 0.122492 0.122493 v 0.36747 0.36748 h -0.122493 -0.122492 z m 2.188529,0 v -0.36747 h 0.122492 0.122492 v 0.36747 0.36748 h -0.122492 -0.122492 z m 2.1885291,0 v -0.36747 h 0.1224895 0.122492 v 0.36747 0.36748 H 10.013401 9.8909115 Z m 2.1885255,0 v -0.36747 h 0.122492 0.122493 v 0.36747 0.36748 h -0.122493 -0.122492 z m 2.188529,0 v -0.36747 h 0.122492 0.122492 v 0.36747 0.36748 h -0.122492 -0.122492 z m 2.188529,0 v -0.36747 h 0.122492 0.122492 v 0.36747 0.36748 h -0.122492 -0.122492 z m 2.188528,0 v -0.36747 h 0.122493 0.122492 v 0.36747 0.36748 h -0.122492 -0.122493 z m 2.188529,0 v -0.36747 h 0.122492 0.122493 v 0.36747 0.36748 h -0.122493 -0.122492 z"
       id="path5657"
       inkscape:connector-curvature="0" />
  </g>
</svg>
