<?xml version="1.0" encoding="UTF-8" standalone="no"?>
<!-- Created with Inkscape (http://www.inkscape.org/) -->

<svg
   xmlns:dc="http://purl.org/dc/elements/1.1/"
   xmlns:cc="http://creativecommons.org/ns#"
   xmlns:rdf="http://www.w3.org/1999/02/22-rdf-syntax-ns#"
   xmlns:svg="http://www.w3.org/2000/svg"
   xmlns="http://www.w3.org/2000/svg"
   xmlns:sodipodi="http://sodipodi.sourceforge.net/DTD/sodipodi-0.dtd"
   xmlns:inkscape="http://www.inkscape.org/namespaces/inkscape"
   width="39"
   height="30"
   viewBox="0 0 10.31875 7.9374995"
   version="1.1"
   id="svg8"
   inkscape:version="0.92.2 (5c3e80d, 2017-08-06)"
   sodipodi:docname="doughnut_simple_small.svg">
  <defs
     id="defs2" />
  <sodipodi:namedview
     id="base"
     pagecolor="#ffffff"
     bordercolor="#666666"
     borderopacity="1.0"
     inkscape:pageopacity="0.0"
     inkscape:pageshadow="2"
     inkscape:zoom="15.839192"
     inkscape:cx="21.159612"
     inkscape:cy="8.8917815"
     inkscape:document-units="mm"
     inkscape:current-layer="layer1"
     showgrid="false"
     inkscape:window-width="1278"
     inkscape:window-height="1008"
     inkscape:window-x="-7"
     inkscape:window-y="0"
     inkscape:window-maximized="0"
     units="px" />
  <metadata
     id="metadata5">
    <rdf:RDF>
      <cc:Work
         rdf:about="">
        <dc:format>image/svg+xml</dc:format>
        <dc:type
           rdf:resource="http://purl.org/dc/dcmitype/StillImage" />
        <dc:title></dc:title>
      </cc:Work>
    </rdf:RDF>
  </metadata>
  <g
     inkscape:label="Layer 1"
     inkscape:groupmode="layer"
     id="layer1"
     transform="translate(0,-289.0625)">
    <path
       style="fill:#ff80e5;stroke-width:0.00655018"
       d="m 4.8724196,297.01276 c -0.25925,-0.0106 -0.57241,-0.0432 -0.84297,-0.0879 -1.003,-0.1657 -1.91645,-0.55274 -2.60928,-1.10561 -0.32496,-0.2593 -0.61698998,-0.57463 -0.83217998,-0.89855 -0.31814998,-0.4789 -0.50032998,-0.98453 -0.55849998,-1.55003 -0.0138,-0.13395 -0.0157,-0.47979 -0.003,-0.60497 0.0269,-0.27271 0.0715,-0.49534 0.14566,-0.72707 0.31588,-0.98711 1.08959996,-1.81582 2.18902996,-2.34463 0.83565,-0.40193 1.80644,-0.61305 2.81749,-0.61272 0.97087,3.2e-4 1.90442,0.19617 2.72228,0.5711 0.44434,0.20371 0.86074,0.47064 1.19213,0.76422 0.0877,0.0777 0.26308,0.25213 0.34003,0.33819 0.6635604,0.74219 0.9745704,1.6533 0.8876504,2.60042 -0.0611,0.66592 -0.31639,1.28635 -0.75367,1.83178 -0.9683404,1.20782 -2.7595604,1.90448 -4.6943304,1.82577 z m 0.53585,-0.7919 c 1.14739,-0.0477 2.2055,-0.39707 2.97705,-0.98311 0.47054,-0.35741 0.79859,-0.77081 0.98445,-1.24062 0.0333,-0.0841 0.0819,-0.23248 0.0927,-0.28275 l 0.004,-0.0207 -0.0381,-0.008 c -0.1334,-0.0289 -0.27436,0.0133 -0.41021,0.12296 -0.1039,0.0839 -0.17558,0.17105 -0.27635,0.33617 -0.0736,0.12061 -0.11588,0.17794 -0.16261,0.22059 -0.0685,0.0625 -0.12529,0.0878 -0.26968,0.12 -0.18515,0.0413 -0.3775,0.0551 -0.67466,0.0485 -0.4009,-0.009 -0.50862,0.0197 -0.88755,0.23588 -0.16753,0.0956 -0.25102,0.13594 -0.34716,0.16785 -0.10906,0.0362 -0.19228,0.0484 -0.29763,0.0435 -0.14747,-0.007 -0.24494,-0.0353 -0.48512,-0.14165 -0.25244,-0.11182 -0.28456,-0.1215 -0.40283,-0.12141 -0.11905,1.1e-4 -0.14818,0.009 -0.50109,0.15253 -0.46099,0.18755 -0.66793,0.20801 -1.00258,0.0991 -0.21357,-0.0695 -0.39984,-0.16262 -0.78615,-0.39306 -0.1967,-0.11734 -0.31267,-0.17981 -0.37401,-0.20148 -0.021,-0.007 -0.0579,-0.0209 -0.082,-0.03 -0.0548,-0.0207 -0.14398,-0.0321 -0.20828,-0.0268 -0.027,0.002 -0.10366,0.0119 -0.17031,0.0215 -0.16832,0.0243 -0.3092,0.0242 -0.39994,-8e-5 -0.11032,-0.0296 -0.21247,-0.0899 -0.33208,-0.19609 -0.0915,-0.0813 -0.16311,-0.16844 -0.28688,-0.34938 -0.0688,-0.10064 -0.16199998,-0.20664 -0.19816998,-0.22551 -0.0148,-0.008 -0.015,-0.007 -0.0106,0.0171 0.0119,0.0668 0.0534,0.2176 0.0859,0.3124 0.19459998,0.56746 0.59520998,1.06066 1.19094998,1.46621 0.86038,0.58569 2.08204,0.90585 3.26854,0.85657 z m 0.44376,-1.82779 c 0.0135,-0.004 0.032,-0.0137 0.0411,-0.0222 0.009,-0.008 0.15648,-0.10313 0.32746,-0.2104 l 0.31087,-0.19504 0.0141,-0.0366 c 0.0212,-0.055 0.0205,-0.13003 -0.002,-0.17739 -0.0233,-0.05 -0.0487,-0.0778 -0.0874,-0.0959 -0.0535,-0.0249 -0.10785,-0.0189 -0.15419,0.017 -0.0126,0.01 -0.15562,0.10624 -0.31781,0.21437 l -0.29488,0.19661 -0.0209,0.0428 c -0.074,0.15173 -0.0205,0.27087 0.12263,0.27297 0.0198,2.8e-4 0.0471,-0.003 0.0606,-0.006 z m -1.69195,-0.51434 c 0.10043,-0.0298 0.18196,-0.19159 0.13899,-0.2758 -0.007,-0.0147 -0.0268,-0.0383 -0.0429,-0.0525 -0.0165,-0.0145 -0.1723,-0.10426 -0.35562,-0.20485 -0.31855,-0.17478 -0.32732,-0.1791 -0.36963,-0.18213 -0.0759,-0.005 -0.12022,0.016 -0.18633,0.0901 l -0.037,0.0415 0.003,0.0406 c 0.003,0.0417 0.0236,0.0859 0.0614,0.12952 0.0163,0.0188 0.6393,0.41345 0.66175,0.41918 0.0277,0.007 0.094,0.004 0.12683,-0.006 z m 3.8959,-0.65767 c 0.0957,-0.0479 0.14694,-0.1228 0.14787,-0.21628 5.3e-4,-0.0528 -0.0169,-0.0901 -0.0552,-0.11778 -0.0323,-0.0234 -0.0168,-0.0176 -0.42156,-0.15731 l -0.32745,-0.11302 -0.0478,0.004 c -0.077,0.006 -0.16246,0.0533 -0.18923,0.10503 -0.0249,0.0482 0.006,0.14243 0.0781,0.23689 l 0.0349,0.0459 0.35345,0.11904 c 0.1944,0.0655 0.35826,0.11927 0.36415,0.11954 0.006,2.8e-4 0.0341,-0.0112 0.0628,-0.0256 z m -5.53952,-0.10884 c 0.0642,-0.0191 0.10127,-0.0543 0.12166,-0.11573 0.0212,-0.0637 -7e-4,-0.12968 -0.0552,-0.16639 -0.0117,-0.008 -0.16439,-0.0621 -0.33922,-0.12035 -0.30641,-0.10214 -0.31947,-0.10586 -0.3623,-0.10344 -0.0557,0.003 -0.0805,0.0189 -0.11375,0.0723 -0.0374,0.06 -0.0327,0.095 0.0238,0.17794 0.01,0.0139 0.0161,0.0272 0.0147,0.0295 -10e-4,0.002 0.13644,0.0562 0.30631,0.1198 0.33088,0.1239 0.33839,0.12588 0.40394,0.10641 z m 2.82958,-0.0684 c 0.44468,-0.0313 0.83726,-0.17134 1.1037,-0.39359 0.16366,-0.13651 0.26967,-0.30311 0.30167,-0.47404 0.016,-0.0857 0.0103,-0.21503 -0.0131,-0.29396 -0.0212,-0.0717 -0.0575,-0.14804 -0.10303,-0.21695 -0.0452,-0.0683 -0.18092,-0.20367 -0.26091,-0.26013 -0.26547,-0.18738 -0.61171,-0.30176 -1.00873,-0.33324 -0.11947,-0.009 -0.38101,-0.004 -0.49126,0.0101 -0.31507,0.0405 -0.58792,0.12942 -0.80751,0.26314 -0.54117,0.32955 -0.63624,0.85586 -0.22595,1.25087 0.20261,0.19506 0.49544,0.33535 0.84678,0.40568 0.2128,0.0426 0.44294,0.0573 0.65829,0.0422 z m 3.04371,-0.87801 c 0.0368,-0.0178 0.0834,-0.0704 0.0965,-0.10873 0.0155,-0.0454 0.0126,-0.0671 -0.006,-0.0481 -0.004,0.004 -0.0554,-0.12377 -0.14622,-0.36517 -0.15682,-0.41673 -0.14928,-0.40232 -0.23244,-0.44396 -0.0545,-0.0273 -0.0959,-0.0296 -0.15281,-0.009 -0.0518,0.0191 -0.0861,0.0431 -0.1097,0.0767 -0.0183,0.026 -0.0199,0.0326 -0.0197,0.0818 l 1.9e-4,0.0535 0.14631,0.34388 c 0.16233,0.38155 0.15487,0.36862 0.23853,0.41322 0.0632,0.0337 0.12376,0.0355 0.18579,0.005 z m -6.67598,-0.52388 c 0.0436,-0.0135 0.0442,-0.014 0.19216,-0.16539 0.0816,-0.0835 0.18916,-0.19344 0.23898,-0.24425 l 0.0906,-0.0924 0.007,-0.0476 c 0.0168,-0.11328 -0.0271,-0.20067 -0.12115,-0.24119 -0.031,-0.0134 -0.0757,-0.01 -0.10707,0.009 -0.0186,0.0109 -0.10732,0.10465 -0.25988,0.27464 -0.22644,0.25231 -0.23192,0.25906 -0.24576,0.30293 -0.0153,0.0485 -0.0186,0.11384 -0.007,0.14397 0.009,0.0244 0.0374,0.0539 0.0618,0.0648 0.0297,0.0133 0.10024,0.0113 0.15046,-0.004 z m 1.84561,-0.55007 c 0.0376,-0.0465 0.064,-0.13748 0.0639,-0.22052 l -5e-5,-0.0445 -0.18011,-0.27922 -0.18011,-0.27923 -0.0331,-0.0143 c -0.0556,-0.0239 -0.0892,-0.0246 -0.15048,-0.003 -0.0468,0.0165 -0.0568,0.023 -0.0799,0.0516 -0.0563,0.0698 -0.065,0.12753 -0.0272,0.1801 0.0104,0.0145 0.0912,0.15076 0.17946,0.30275 0.17247,0.29696 0.16469,0.28667 0.23695,0.31345 0.0277,0.0103 0.0475,0.0125 0.0963,0.0108 0.0559,-0.002 0.0626,-0.004 0.0744,-0.0181 z m 3.05739,-0.51349 c 0.16752,-0.0525 0.31677,-0.10002 0.33167,-0.10554 0.0318,-0.0118 0.0923,-0.0723 0.11312,-0.11308 0.02,-0.0393 0.0277,-0.0859 0.0192,-0.11658 -0.012,-0.0435 -0.0457,-0.0694 -0.12014,-0.0924 -0.11024,-0.034 -0.078,-0.0387 -0.43341,0.0637 -0.30101,0.0867 -0.32095,0.0934 -0.33838,0.11319 -0.0266,0.0302 -0.0564,0.0916 -0.0637,0.13117 -0.007,0.0382 0.004,0.11143 0.0216,0.14534 0.0258,0.0492 0.0775,0.0775 0.13264,0.0726 0.018,-0.002 0.16981,-0.0459 0.33733,-0.0984 z m -1.53108,-0.2148 c 0.0652,-0.0336 0.1118,-0.0827 0.12649,-0.13326 0.009,-0.0321 0.009,-0.0389 3.3e-4,-0.07 -0.0154,-0.0529 -0.0711,-0.10142 -0.10757,-0.0937 -0.01,0.002 -0.17653,-0.024 -0.37134,-0.0579 l -0.35371,-0.0616 -0.0409,0.0187 c -0.0587,0.0268 -0.0841,0.0486 -0.10396,0.0891 -0.0154,0.0315 -0.017,0.0407 -0.0135,0.0786 0.006,0.0669 0.0379,0.1252 0.0848,0.1559 0.0126,0.008 0.10896,0.0241 0.35978,0.059 0.1884,0.0263 0.34845,0.0463 0.35566,0.0446 0.007,-0.002 0.0359,-0.015 0.0639,-0.0294 z"
       id="path837"
       inkscape:connector-curvature="0" />
  </g>
</svg>
