<?xml version="1.0" encoding="UTF-8" standalone="no"?>
<!-- Created with Inkscape (http://www.inkscape.org/) -->

<svg
   xmlns:dc="http://purl.org/dc/elements/1.1/"
   xmlns:cc="http://creativecommons.org/ns#"
   xmlns:rdf="http://www.w3.org/1999/02/22-rdf-syntax-ns#"
   xmlns:svg="http://www.w3.org/2000/svg"
   xmlns="http://www.w3.org/2000/svg"
   xmlns:sodipodi="http://sodipodi.sourceforge.net/DTD/sodipodi-0.dtd"
   xmlns:inkscape="http://www.inkscape.org/namespaces/inkscape"
   width="80"
   height="25"
   viewBox="0 0 21.166666 6.6145835"
   version="1.1"
   id="svg8"
   inkscape:version="0.92.3 (2405546, 2018-03-11)"
   sodipodi:docname="mirror_wave.svg">
  <defs
     id="defs2" />
  <sodipodi:namedview
     id="base"
     pagecolor="#ffffff"
     bordercolor="#666666"
     borderopacity="1.0"
     inkscape:pageopacity="0.0"
     inkscape:pageshadow="2"
     inkscape:zoom="7.9195959"
     inkscape:cx="47.443159"
     inkscape:cy="32.868283"
     inkscape:document-units="mm"
     inkscape:current-layer="layer1"
     showgrid="false"
     units="px"
     inkscape:window-width="1374"
     inkscape:window-height="775"
     inkscape:window-x="260"
     inkscape:window-y="180"
     inkscape:window-maximized="0" />
  <metadata
     id="metadata5">
    <rdf:RDF>
      <cc:Work
         rdf:about="">
        <dc:format>image/svg+xml</dc:format>
        <dc:type
           rdf:resource="http://purl.org/dc/dcmitype/StillImage" />
        <dc:title></dc:title>
      </cc:Work>
    </rdf:RDF>
  </metadata>
  <g
     inkscape:label="Layer 1"
     inkscape:groupmode="layer"
     id="layer1"
     transform="translate(0,-290.3854)">
    <path
       style="fill:#000000;stroke-width:0.01633231"
       d="m 8.839156,293.70692 v -3.30729 h 0.1225 0.12249 v 3.30729 3.30729 h -0.12249 -0.1225 z m 1.09427,0 v -3.30729 h 0.122489 0.12249 v 3.30729 3.30729 h -0.12249 -0.122489 z m 1.094259,0 v -3.30729 h 0.12249 0.1225 v 3.30729 3.30729 h -0.1225 -0.12249 z m 1.10515,3.06775 c -0.006,-0.006 -0.0109,-1.3877 -0.0109,-3.07047 v -3.05959 h 0.1225 0.12249 v 3.07047 3.07048 h -0.1116 c -0.0614,0 -0.11651,-0.005 -0.1225,-0.0109 z m -4.387939,-3.06775 v -3.06231 h 0.12249 0.12249 v 3.06231 3.06231 h -0.12249 -0.12249 z m -1.094266,0 v -2.81732 h 0.122493 0.122493 v 2.81732 2.81732 H 6.773123 6.65063 Z m 6.565585,0 v -2.81732 h 0.12249 0.1225 v 2.81732 2.81732 h -0.1225 -0.12249 z m -7.659849,0 v -2.57234 h 0.122492 0.122493 v 2.57234 2.57234 H 5.678858 5.556366 Z m 8.754109,0 v -2.57234 h 0.1225 0.12249 v 2.57234 2.57234 h -0.12249 -0.1225 z m -9.848373,0 v -2.32736 h 0.122492 0.122492 v 2.32736 2.32735 H 4.584594 4.462102 Z m 10.942643,0 v -2.32736 h 0.12249 0.12249 v 2.32736 2.32735 h -0.12249 -0.12249 z m -12.036908,0 v -2.08237 h 0.122492 0.122493 v 2.08237 2.08237 H 3.490329 3.367837 Z m 13.131168,0 v -2.08237 h 0.1225 0.12249 v 2.08237 2.08237 h -0.12249 -0.1225 z m -14.225432,0 v -1.83739 h 0.122492 0.122492 v 1.83739 1.83738 H 2.396065 2.273573 Z m 15.319702,0 v -1.83739 h 0.12249 0.12249 v 1.83739 1.83738 h -0.12249 -0.12249 z m -16.413967,0 v -1.5924 h 0.122493 0.122492 v 1.5924 1.5924 H 1.301801 1.179308 Z m 17.508227,0 v -1.5924 h 0.1225 0.12249 v 1.5924 1.5924 h -0.12249 -0.1225 z m -18.60249098,0 v -1.34742 h 0.122492 0.122493 v 1.34742 1.34741 h -0.122493 -0.122492 z m 19.69676098,0 v -1.34742 h 0.12249 0.12249 v 1.34742 1.34741 h -0.12249 -0.12249 z m 1.09426,0 v -1.34742 h 0.12249 0.1225 v 1.34742 1.34741 h -0.1225 -0.12249 z"
       id="path4529"
       inkscape:connector-curvature="0"
       inkscape:transform-center-x="146.65476"
       inkscape:transform-center-y="20.410714" />
  </g>
</svg>
