<?xml version="1.0" encoding="UTF-8" standalone="no"?>
<!-- Created with Inkscape (http://www.inkscape.org/) -->

<svg
   xmlns:dc="http://purl.org/dc/elements/1.1/"
   xmlns:cc="http://creativecommons.org/ns#"
   xmlns:rdf="http://www.w3.org/1999/02/22-rdf-syntax-ns#"
   xmlns:svg="http://www.w3.org/2000/svg"
   xmlns="http://www.w3.org/2000/svg"
   xmlns:sodipodi="http://sodipodi.sourceforge.net/DTD/sodipodi-0.dtd"
   xmlns:inkscape="http://www.inkscape.org/namespaces/inkscape"
   width="80"
   height="25"
   viewBox="0 0 21.166666 6.6145835"
   version="1.1"
   id="svg5665"
   inkscape:version="0.92.3 (2405546, 2018-03-11)"
   sodipodi:docname="random-roll.svg">
  <defs
     id="defs5659" />
  <sodipodi:namedview
     id="base"
     pagecolor="#ffffff"
     bordercolor="#666666"
     borderopacity="1.0"
     inkscape:pageopacity="0.0"
     inkscape:pageshadow="2"
     inkscape:zoom="11.2"
     inkscape:cx="33.11868"
     inkscape:cy="3.3300548"
     inkscape:document-units="mm"
     inkscape:current-layer="layer1"
     showgrid="false"
     units="px"
     inkscape:window-width="1920"
     inkscape:window-height="1017"
     inkscape:window-x="-8"
     inkscape:window-y="-8"
     inkscape:window-maximized="1" />
  <metadata
     id="metadata5662">
    <rdf:RDF>
      <cc:Work
         rdf:about="">
        <dc:format>image/svg+xml</dc:format>
        <dc:type
           rdf:resource="http://purl.org/dc/dcmitype/StillImage" />
        <dc:title></dc:title>
      </cc:Work>
    </rdf:RDF>
  </metadata>
  <g
     inkscape:label="Layer 1"
     inkscape:groupmode="layer"
     id="layer1"
     transform="translate(0,-290.3854)">
    <path
       style="fill:#000000;stroke-width:0.01633231"
       d="m 0.08504616,294.94602 v -2.08237 h 0.122492 0.122493 v 2.08237 2.08237 h -0.122493 -0.122492 z m 1.09426494,1.95988 v -0.12249 H 1.301803 1.424295 v 0.12249 0.12249 H 1.301803 1.1793111 Z m 1.0942638,-1.22492 v -1.34742 h 0.122492 0.122493 v 1.34742 1.34741 h -0.122493 -0.122492 z m 1.094265,-1.34742 v -2.69483 h 0.122492 0.122492 v 2.69483 2.69483 h -0.122492 -0.122492 z m 1.094264,2.20486 v -0.48997 h 0.122492 0.122493 v 0.48997 0.48997 h -0.122493 -0.122492 z m 1.094265,-1.46991 v -1.95987 h 0.122492 0.122492 v 1.95987 1.95988 h -0.122492 -0.122492 z m 2.188529,0.61247 v -1.34742 h 0.122492 0.122492 v 1.34742 1.34741 h -0.122492 -0.122492 z m 1.094264,-1.10244 v -2.44984 h 0.122493 0.122492 v 2.44984 2.44985 h -0.122492 -0.122493 z m 1.094265,2.08237 v -0.36747 h 0.1224931 0.122494 v 0.36747 0.36748 H 10.05592 9.9334269 Z m 1.0942791,-1.5924 v -1.95987 h 0.122493 0.122492 v 1.95987 1.95988 h -0.122492 -0.122493 z m 1.094265,1.22493 v -0.73496 h 0.122492 0.122492 v 0.73496 0.73495 h -0.122492 -0.122492 z m 1.094264,-1.95988 v -2.69483 h 0.122492 0.122493 v 2.69483 2.69483 h -0.122493 -0.122492 z m 1.094264,1.46991 v -1.22493 h 0.122493 0.122492 v 1.22493 1.22492 h -0.122492 -0.122493 z m 2.18853,-1.10243 v -2.32736 h 0.122492 0.122492 v 2.32736 2.32735 h -0.122492 -0.122492 z m 1.094264,1.34741 v -0.97994 h 0.122493 0.122492 v 0.97994 0.97994 h -0.122492 -0.122493 z m 1.094265,-1.5924 v -2.57234 h 0.122492 0.122493 v 2.57234 2.57234 H 18.81005 18.687558 Z m 1.094264,1.71489 v -0.85744 h 0.122493 0.122492 v 0.85744 0.85745 h -0.122492 -0.122493 z m 1.094265,0.73496 v -0.12249 h 0.122492 0.122493 v 0.12249 0.12249 H 20.998579 20.876087 Z M 6.6506329,293.10864 v -2.69483 h 0.122493 0.122492 v 2.69483 2.69483 h -0.122492 -0.122493 z m 8.7541311,0 v -2.69483 h 0.122492 0.122493 v 2.69483 2.69483 h -0.122493 -0.122492 z m -14.2254529,-0.1225 v -2.57233 H 1.301803 1.424295 v 2.57233 2.57234 H 1.301803 1.1793111 Z m 19.6967759,0 v -2.57233 h 0.122492 0.122493 v 2.57233 2.57234 H 20.998579 20.876087 Z M 9.9334269,292.74116 v -2.32735 h 0.1224931 0.122494 v 2.32735 2.32735 H 10.05592 9.9334269 Z m -5.471323,-0.12249 v -2.20486 h 0.122492 0.122493 v 2.20486 2.20486 h -0.122493 -0.122492 z m 7.6598671,-0.24499 v -1.95987 h 0.122492 0.122492 v 1.95987 1.95988 h -0.122492 -0.122492 z m 7.659851,-0.12249 v -1.83738 h 0.122493 0.122492 v 1.83738 1.83738 h -0.122492 -0.122493 z m -2.188529,-0.12249 v -1.71489 h 0.122493 0.122492 v 1.71489 1.71489 h -0.122492 -0.122493 z m -3.282794,-0.24499 v -1.4699 h 0.122493 0.122492 v 1.4699 1.46991 H 14.432992 14.310499 Z M 2.2735749,291.76122 v -1.34741 h 0.122492 0.122493 v 1.34741 1.34742 h -0.122493 -0.122492 z m 5.471323,0 v -1.34741 h 0.122492 0.122492 v 1.34741 1.34742 h -0.122492 -0.122492 z m -2.188529,-0.61246 v -0.73495 h 0.122492 0.122492 v 0.73495 0.73495 h -0.122492 -0.122492 z m 5.4713371,0 v -0.73495 h 0.122493 0.122492 v 0.73495 0.73495 H 11.150199 11.027706 Z M 0.08504616,291.02627 v -0.61246 h 0.122492 0.122493 v 0.61246 0.61246 h -0.122493 -0.122492 z M 16.499029,290.78128 v -0.36747 h 0.122492 0.122492 v 0.36747 0.36748 h -0.122492 -0.122492 z m -7.6598671,-0.12249 v -0.24498 h 0.122493 0.122492 v 0.24498 0.24499 h -0.122492 -0.122493 z m 9.8483961,-0.12249 v -0.12249 h 0.122492 0.122493 v 0.12249 0.12249 H 18.81005 18.687558 Z"
       id="path6221"
       inkscape:connector-curvature="0" />
  </g>
</svg>
