<?xml version="1.0" encoding="UTF-8" standalone="no"?>
<!-- Created with Inkscape (http://www.inkscape.org/) -->

<svg
   xmlns:dc="http://purl.org/dc/elements/1.1/"
   xmlns:cc="http://creativecommons.org/ns#"
   xmlns:rdf="http://www.w3.org/1999/02/22-rdf-syntax-ns#"
   xmlns:svg="http://www.w3.org/2000/svg"
   xmlns="http://www.w3.org/2000/svg"
   xmlns:sodipodi="http://sodipodi.sourceforge.net/DTD/sodipodi-0.dtd"
   xmlns:inkscape="http://www.inkscape.org/namespaces/inkscape"
   width="80"
   height="25"
   viewBox="0 0 21.166666 6.6145835"
   version="1.1"
   id="svg4537"
   inkscape:version="0.92.3 (2405546, 2018-03-11)"
   sodipodi:docname="sync-wave.svg">
  <defs
     id="defs4531" />
  <sodipodi:namedview
     id="base"
     pagecolor="#ffffff"
     bordercolor="#666666"
     borderopacity="1.0"
     inkscape:pageopacity="0.0"
     inkscape:pageshadow="2"
     inkscape:zoom="11.2"
     inkscape:cx="43.193084"
     inkscape:cy="-3.1787193"
     inkscape:document-units="mm"
     inkscape:current-layer="layer1"
     showgrid="false"
     units="px"
     inkscape:window-width="1920"
     inkscape:window-height="1017"
     inkscape:window-x="-8"
     inkscape:window-y="-8"
     inkscape:window-maximized="1" />
  <metadata
     id="metadata4534">
    <rdf:RDF>
      <cc:Work
         rdf:about="">
        <dc:format>image/svg+xml</dc:format>
        <dc:type
           rdf:resource="http://purl.org/dc/dcmitype/StillImage" />
        <dc:title></dc:title>
      </cc:Work>
    </rdf:RDF>
  </metadata>
  <g
     inkscape:label="Layer 1"
     inkscape:groupmode="layer"
     id="layer1"
     transform="translate(0,-290.3854)">
    <path
       style="fill:#000000;stroke-width:0.0163323"
       d="m 0.05669429,294.68685 v -2.32736 h 0.122492 0.122493 v 2.32736 2.32735 h -0.122493 -0.122492 z m 19.69675871,0 v -2.32736 h 0.12249 0.1225 v 2.32736 2.32735 h -0.1225 -0.12249 z m 1.09427,0 v -2.32736 h 0.12249 0.12249 v 2.32736 2.32735 h -0.12249 -0.12249 z M 1.1509582,294.44186 v -2.32735 h 0.122493 0.122492 v 2.32735 2.32736 h -0.122492 -0.122493 z m 17.5082348,0 v -2.32735 h 0.12249 0.12249 v 2.32735 2.32736 h -0.12249 -0.12249 z M 2.2452232,294.19688 v -2.32736 h 0.122492 0.122492 v 2.32736 2.32735 h -0.122492 -0.122492 z m 15.3196998,0 v -2.32736 h 0.1225 0.12249 v 2.32736 2.32735 h -0.12249 -0.1225 z M 3.3394872,293.95189 v -2.32735 h 0.122492 0.122492 v 2.32735 2.32736 h -0.122492 -0.122492 z m 13.1311758,0 v -2.32735 h 0.12249 0.12249 v 2.32735 2.32736 h -0.12249 -0.12249 z M 4.4337512,293.70691 v -2.32736 h 0.122492 0.122493 v 2.32736 2.32735 h -0.122493 -0.122492 z m 10.9426418,0 v -2.32736 h 0.1225 0.12249 v 2.32736 2.32735 h -0.12249 -0.1225 z m -9.8483778,-0.24499 v -2.32735 h 0.122493 0.122492 v 2.32735 2.32736 h -0.122492 -0.122493 z m 8.7541178,0 v -2.32735 h 0.12249 0.1225 v 2.32735 2.32736 h -0.1225 -0.12249 z m -7.6598528,-0.24498 v -2.32735 h 0.122492 0.122492 v 2.32735 2.32735 h -0.122492 -0.122492 z m 6.5655928,0 v -2.32735 h 0.12249 0.12249 v 2.32735 2.32735 h -0.12249 -0.12249 z m -5.4713288,-0.24499 v -2.32735 h 0.122492 0.122493 v 2.32735 2.32736 h -0.122493 -0.122492 z m 4.3770588,0 v -2.32735 h 0.12249 0.1225 v 2.32735 2.32736 h -0.1225 -0.12249 z m -3.2827944,-0.24498 v -2.32735 h 0.122493 0.122492 v 2.32735 2.32735 h -0.122492 -0.122493 z m 1.0942642,0 v -2.32735 h 0.1224932 0.122495 v 2.32735 2.32735 H 10.027566 9.9050728 Z m 1.0942682,0 v -2.32735 h 0.122492 0.122493 v 2.32735 2.32735 h -0.122493 -0.122492 z"
       id="path5093"
       inkscape:connector-curvature="0" />
  </g>
</svg>
