<?xml version="1.0" encoding="UTF-8" standalone="no"?>
<!-- Created with Inkscape (http://www.inkscape.org/) -->

<svg
   xmlns:dc="http://purl.org/dc/elements/1.1/"
   xmlns:cc="http://creativecommons.org/ns#"
   xmlns:rdf="http://www.w3.org/1999/02/22-rdf-syntax-ns#"
   xmlns:svg="http://www.w3.org/2000/svg"
   xmlns="http://www.w3.org/2000/svg"
   xmlns:sodipodi="http://sodipodi.sourceforge.net/DTD/sodipodi-0.dtd"
   xmlns:inkscape="http://www.inkscape.org/namespaces/inkscape"
   width="80"
   height="25"
   viewBox="0 0 21.166666 6.6145835"
   version="1.1"
   id="svg6229"
   inkscape:version="0.92.3 (2405546, 2018-03-11)"
   sodipodi:docname="wave-cave.svg">
  <defs
     id="defs6223" />
  <sodipodi:namedview
     id="base"
     pagecolor="#ffffff"
     bordercolor="#666666"
     borderopacity="1.0"
     inkscape:pageopacity="0.0"
     inkscape:pageshadow="2"
     inkscape:zoom="11.2"
     inkscape:cx="53.102314"
     inkscape:cy="-6.5168779"
     inkscape:document-units="mm"
     inkscape:current-layer="layer1"
     showgrid="false"
     units="px"
     inkscape:window-width="1920"
     inkscape:window-height="1017"
     inkscape:window-x="-8"
     inkscape:window-y="-8"
     inkscape:window-maximized="1" />
  <metadata
     id="metadata6226">
    <rdf:RDF>
      <cc:Work
         rdf:about="">
        <dc:format>image/svg+xml</dc:format>
        <dc:type
           rdf:resource="http://purl.org/dc/dcmitype/StillImage" />
        <dc:title></dc:title>
      </cc:Work>
    </rdf:RDF>
  </metadata>
  <g
     inkscape:label="Layer 1"
     inkscape:groupmode="layer"
     id="layer1"
     transform="translate(0,-290.3854)">
    <path
       style="fill:#000000;stroke-width:0.0163323"
       d="m 0.08032327,295.68567 v -1.34741 h 0.122492 0.122493 v 1.34741 1.34742 h -0.122493 -0.122492 z m 1.09426393,0.61247 v -0.73496 h 0.122493 0.1224919 v 0.73496 0.73495 H 1.2970802 1.1745872 Z m 1.0942648,0.48997 v -0.24499 h 0.122492 0.122492 v 0.24499 0.24498 H 2.391344 2.268852 Z m 1.094264,0.12249 v -0.12249 h 0.122492 0.122493 v 0.12249 0.12249 H 3.485608 3.363116 Z m 1.094265,-0.36748 v -0.48997 h 0.122492 0.122492 v 0.48997 0.48997 H 4.579873 4.457381 Z m 1.094264,-0.61246 v -1.10243 h 0.122492 0.122492 v 1.10243 1.10243 H 5.674137 5.551645 Z m 1.094264,-0.73495 v -1.83739 h 0.122493 0.122492 v 1.83739 1.83738 H 6.768402 6.645909 Z m 1.094265,-0.48997 v -2.32736 h 0.122492 0.122492 v 2.32736 2.32735 H 7.862666 7.740174 Z m 1.094263,-0.24499 v -2.57234 h 0.12249 0.1225 v 2.57234 2.57234 h -0.1225 -0.12249 z m 1.09426,0.12249 v -2.44984 h 0.1225 0.12249 v 2.44984 2.44985 h -0.12249 -0.1225 z m 1.09427,0.48997 v -1.95987 h 0.12249 0.12249 v 1.95987 1.95988 h -0.12249 -0.12249 z m 1.09426,0.61246 v -1.34741 h 0.1225 0.12249 v 1.34741 1.34742 h -0.12249 -0.1225 z m 1.09427,0.73496 v -0.61246 h 0.12249 0.12249 v 0.61246 0.61246 h -0.12249 -0.12249 z m 1.09426,0.12249 v -0.48997 h 0.12249 0.1225 v 0.48997 0.48997 h -0.1225 -0.12249 z m 1.09427,0 v -0.48997 h 0.12249 0.12249 v 0.48997 0.48997 h -0.12249 -0.12249 z m 1.09426,-0.24498 v -0.73496 h 0.12249 0.1225 v 0.73496 0.73495 h -0.1225 -0.12249 z m 1.09427,-0.48997 v -1.22493 h 0.12249 0.12249 v 1.22493 1.22492 h -0.12249 -0.12249 z m 1.09426,-0.48997 v -1.71489 h 0.12249 0.12249 v 1.71489 1.71489 h -0.12249 -0.12249 z m 1.09426,-0.36748 v -2.08237 h 0.1225 0.12249 v 2.08237 2.08237 h -0.12249 -0.1225 z m 1.09427,0 v -2.08237 h 0.12249 0.12249 v 2.08237 2.08237 h -0.12249 -0.12249 z M 3.363116,292.99084 v -2.57233 h 0.122492 0.122493 v 2.57233 2.57234 H 3.485608 3.363116 Z m -1.094264,-0.12249 v -2.44984 h 0.122492 0.122492 v 2.44984 2.44985 H 2.391344 2.268852 Z m 2.188529,-0.24498 v -2.20486 h 0.122492 0.122492 v 2.20486 2.20486 H 4.579873 4.457381 Z m 9.848376,0 v -2.20486 h 0.12249 0.1225 v 2.20486 2.20486 h -0.1225 -0.12249 z m 1.09427,0 v -2.20486 h 0.12249 0.12249 v 2.20486 2.20486 h -0.12249 -0.12249 z m -2.18853,-0.12249 v -2.08237 h 0.12249 0.12249 v 2.08237 2.08236 h -0.12249 -0.12249 z m -12.0369098,-0.1225 v -1.95987 h 0.122493 0.1224919 v 1.95987 1.95988 H 1.2970802 1.1745872 Z m 15.3196998,0 v -1.95987 h 0.12249 0.1225 v 1.95987 1.95988 h -0.1225 -0.12249 z M 5.551645,292.01091 v -1.5924 h 0.122492 0.122492 v 1.5924 1.5924 H 5.674137 5.551645 Z m 12.036912,-0.1225 v -1.4699 h 0.12249 0.12249 v 1.4699 1.46991 h -0.12249 -0.12249 z M 0.08032327,291.76592 v -1.34741 h 0.122492 0.122493 v 1.34741 1.34742 h -0.122493 -0.122492 z m 12.03690373,0 v -1.34741 h 0.1225 0.12249 v 1.34741 1.34742 h -0.12249 -0.1225 z m 6.56559,-0.36748 v -0.97993 h 0.12249 0.12249 v 0.97993 0.97994 h -0.12249 -0.12249 z M 6.645909,291.27595 v -0.85744 h 0.122493 0.122492 v 0.85744 0.85745 H 6.768402 6.645909 Z m 4.377058,-0.12249 v -0.73495 h 0.12249 0.12249 v 0.73495 0.73495 h -0.12249 -0.12249 z m 8.75411,-0.12249 v -0.61246 h 0.1225 0.12249 v 0.61246 0.61246 h -0.12249 -0.1225 z m 1.09427,0 v -0.61246 h 0.12249 0.12249 v 0.61246 0.61246 h -0.12249 -0.12249 z M 7.740174,290.78598 v -0.36747 h 0.122492 0.122492 v 0.36747 0.36748 H 7.862666 7.740174 Z m 2.188523,-0.12249 v -0.24498 h 0.1225 0.12249 v 0.24498 0.24499 h -0.12249 -0.1225 z M 8.834437,290.541 v -0.12249 h 0.12249 0.1225 v 0.12249 0.12249 h -0.1225 -0.12249 z"
       id="path6785"
       inkscape:connector-curvature="0" />
  </g>
</svg>
